<svg width="1600" height="1000" viewBox="0 0 1600 1000" fill="none" xmlns="http://www.w3.org/2000/svg">
<g clip-path="url(#clip0_1373_232427)">
<rect width="1600" height="1000" fill="url(#paint0_linear_1373_232427)"/>
<g opacity="0.25">
<path d="M671.718 1181.83L2126.64 341.833M602.436 1141.83L2057.36 301.833M533.154 1101.83L1988.08 261.833M463.872 1061.83L1918.79 221.833M394.59 1021.83L1849.51 181.833M325.308 981.833L1780.23 141.833M256.026 941.833L1710.95 101.833M186.744 901.833L1641.67 61.8334M117.462 861.833L1572.38 21.8334M48.1799 821.833L1503.1 -18.1666M-21.1022 781.833L1433.82 -58.1666M-90.3842 741.833L1364.54 -98.1666M-159.666 701.833L1295.26 -138.167M706.359 1201.83L2161.28 361.833M741 1221.83L2195.92 381.833M637.077 1161.83L2092 321.833M567.795 1121.83L2022.72 281.833M498.513 1081.83L1953.44 241.833M429.231 1041.83L1884.15 201.833M359.949 1001.83L1814.87 161.833M290.667 961.833L1745.59 121.833M221.385 921.833L1676.31 81.8334M152.103 881.833L1607.03 41.8334M82.8209 841.833L1537.74 1.83337M13.5389 801.833L1468.46 -38.1666M-55.7432 761.833L1399.18 -78.1666M-125.025 721.833L1329.9 -118.167M-228.948 661.833L1225.97 -178.167M-194.307 681.833L1260.62 -158.167M-159.231 621.835L810.718 1181.83M-89.9489 581.835L880 1141.83M-20.6668 541.835L949.282 1101.83M48.6152 501.835L1018.56 1061.83M117.897 461.835L1087.85 1021.83M187.179 421.835L1157.13 981.835M256.461 381.835L1226.41 941.835M325.743 341.835L1295.69 901.835M395.025 301.835L1364.97 861.835M464.307 261.835L1434.26 821.835M533.589 221.835L1503.54 781.835M602.872 181.835L1572.82 741.835M672.154 141.835L1642.1 701.835M741.436 101.835L1711.38 661.835M810.718 61.8347L1780.67 621.835M880 21.8347L1849.95 581.835M949.282 -18.1653L1919.23 541.835M1018.56 -58.1653L1988.51 501.835M-228.513 661.835L741.436 1221.83M1087.85 -98.1653L2057.79 461.835M1157.13 -138.165L2127.08 421.835M1226.41 -178.165L2196.36 381.835M1122.49 -118.165L2092.44 441.835M1191.77 -158.165L2161.72 401.835M-124.59 601.835L845.359 1161.83M-55.3079 561.835L914.641 1121.83M13.9742 521.835L983.923 1081.83M83.2562 481.835L1053.2 1041.83M152.538 441.835L1122.49 1001.83M221.82 401.835L1191.77 961.835M291.102 361.835L1261.05 921.835M360.384 321.835L1330.33 881.835M429.666 281.835L1399.61 841.835M498.948 241.835L1468.9 801.835M568.23 201.835L1538.18 761.835M637.513 161.835L1607.46 721.835M706.795 121.835L1676.74 681.835M776.077 81.8347L1746.03 641.835M845.359 41.8347L1815.31 601.835M914.641 1.83475L1884.59 561.835M983.923 -38.1653L1953.87 521.835M1053.2 -78.1653L2023.15 481.835M-193.872 641.835L776.077 1201.83" stroke="url(#paint1_radial_1373_232427)" stroke-width="0.5"/>
</g>
<path d="M1434.5 140.5L1191.5 281.5L1329.5 362.5L1123 482L1054 522M1456 489L1260.5 601.5L1191.5 561.5L1157 582L1088 542L1018.25 501.5M634 921.5L844.5 802L603.5 663L777 562.5L880 621.5L983.5 562.5L1054 522M277 528L775 240L913.5 321.5L810.5 381.5L948.5 461.5L1018.25 501.5M1054 522L1018.25 501.5" stroke="url(#paint2_radial_1373_232427)" stroke-opacity="0.5" stroke-width="4" stroke-linecap="round"/>
<g opacity="0.4">
<ellipse cx="1131.97" cy="567.398" rx="17" ry="4.5" transform="rotate(-150 1131.97 567.398)" fill="url(#paint3_radial_1373_232427)"/>
<ellipse cx="1189.18" cy="443.778" rx="17" ry="4.5" transform="rotate(152.779 1189.18 443.778)" fill="url(#paint4_radial_1373_232427)"/>
<ellipse cx="867.176" cy="348.778" rx="17" ry="4.5" transform="rotate(152.779 867.176 348.778)" fill="url(#paint5_radial_1373_232427)"/>
<ellipse cx="932.972" cy="591.398" rx="17" ry="4.5" transform="rotate(-30 932.972 591.398)" fill="url(#paint6_radial_1373_232427)"/>
</g>
<path d="M786 917L1191.5 682L1088 621.5L1122.5 601.75L1156.5 621.5L1261 561.5L1191.5 522L1088 580.5L1054 560.5L914 481.5L845 441.5L914 401L775 321.5L950 221L797 133" stroke="url(#paint7_radial_1373_232427)" stroke-width="4" stroke-linecap="round"/>
<path d="M1183 916.5L845 722L983.5 641.5L879.5 582L948.5 542L1088.5 461.5L1191.5 402L1260 442L1226.5 461.5L1295.5 501.5L1457 409" stroke="url(#paint8_radial_1373_232427)" stroke-width="4" stroke-linecap="round"/>
<g opacity="0.8">
<ellipse cx="1170.9" cy="533.578" rx="17" ry="4.5" transform="rotate(149.165 1170.9 533.578)" fill="url(#paint9_radial_1373_232427)"/>
<ellipse cx="949.973" cy="622.398" rx="17" ry="4.5" transform="rotate(-150 949.973 622.398)" fill="url(#paint10_radial_1373_232427)"/>
<ellipse cx="1250.9" cy="475.589" rx="17" ry="4.5" transform="rotate(-149.105 1250.9 475.589)" fill="url(#paint11_radial_1373_232427)"/>
<ellipse cx="871.974" cy="457.397" rx="17" ry="4.5" transform="rotate(-150 871.974 457.397)" fill="url(#paint12_radial_1373_232427)"/>
</g>
<g filter="url(#filter0_b_1373_232427)">
<circle cx="1018.5" cy="498.5" r="116.5" fill="url(#paint13_radial_1373_232427)" fill-opacity="0.5"/>
</g>
<g opacity="0.75">
<path opacity="0.6" d="M983.5 401.501V361.501L1018.5 381.501V421.501L983.5 401.501Z" fill="#E32212"/>
<path opacity="0.8" d="M1053.5 401.501V361.501L1018.5 381.501V421.501L1053.5 401.501Z" fill="#E32212"/>
<path opacity="0.4" d="M1018.5 341.5L1053.5 361.5L1018.5 381.5L983.5 361.5L1018.5 341.5Z" fill="#E32212"/>
</g>
<g opacity="0.75">
<path d="M948.5 421.501V341.503L1018.5 381.502V461.501L948.5 421.501Z" fill="#E32212" fill-opacity="0.15" stroke="#E32212" stroke-width="1.81817" stroke-linejoin="round"/>
<path d="M1088.5 421.501V341.503L1018.5 381.502V461.501L1088.5 421.501Z" fill="#E32212" fill-opacity="0.15" stroke="#E32212" stroke-width="1.81817" stroke-linejoin="round"/>
<path d="M1018.5 301.5L1088.5 341.5L1018.5 381.499L948.5 341.5L1018.5 301.5Z" fill="#E32212" fill-opacity="0.15" stroke="#E32212" stroke-width="1.81817" stroke-linejoin="round"/>
</g>
<g opacity="0.35" filter="url(#filter1_f_1373_232427)">
<circle cx="1014" cy="133" r="140" fill="#E32212"/>
</g>
<g opacity="0.4" filter="url(#filter2_f_1373_232427)">
<circle cx="485" cy="640" r="140" fill="#E32212"/>
</g>
</g>
<defs>
<filter id="filter0_b_1373_232427" x="900" y="380" width="237" height="237" filterUnits="userSpaceOnUse" color-interpolation-filters="sRGB">
<feFlood flood-opacity="0" result="BackgroundImageFix"/>
<feGaussianBlur in="BackgroundImageFix" stdDeviation="1"/>
<feComposite in2="SourceAlpha" operator="in" result="effect1_backgroundBlur_1373_232427"/>
<feBlend mode="normal" in="SourceGraphic" in2="effect1_backgroundBlur_1373_232427" result="shape"/>
</filter>
<filter id="filter1_f_1373_232427" x="474" y="-407" width="1080" height="1080" filterUnits="userSpaceOnUse" color-interpolation-filters="sRGB">
<feFlood flood-opacity="0" result="BackgroundImageFix"/>
<feBlend mode="normal" in="SourceGraphic" in2="BackgroundImageFix" result="shape"/>
<feGaussianBlur stdDeviation="200" result="effect1_foregroundBlur_1373_232427"/>
</filter>
<filter id="filter2_f_1373_232427" x="-55" y="100" width="1080" height="1080" filterUnits="userSpaceOnUse" color-interpolation-filters="sRGB">
<feFlood flood-opacity="0" result="BackgroundImageFix"/>
<feBlend mode="normal" in="SourceGraphic" in2="BackgroundImageFix" result="shape"/>
<feGaussianBlur stdDeviation="200" result="effect1_foregroundBlur_1373_232427"/>
</filter>
<linearGradient id="paint0_linear_1373_232427" x1="800" y1="0" x2="800" y2="732" gradientUnits="userSpaceOnUse">
<stop stop-color="#2B2B2B"/>
<stop offset="1" stop-color="#2B2B2B" stop-opacity="0"/>
</linearGradient>
<radialGradient id="paint1_radial_1373_232427" cx="0" cy="0" r="1" gradientUnits="userSpaceOnUse" gradientTransform="translate(983.705 521.834) scale(754.342 415.124)">
<stop stop-color="white" stop-opacity="0.8"/>
<stop offset="1" stop-color="white" stop-opacity="0"/>
</radialGradient>
<radialGradient id="paint2_radial_1373_232427" cx="0" cy="0" r="1" gradientUnits="userSpaceOnUse" gradientTransform="translate(1024 487) scale(419 419)">
<stop stop-color="white"/>
<stop offset="1" stop-color="white" stop-opacity="0"/>
</radialGradient>
<radialGradient id="paint3_radial_1373_232427" cx="0" cy="0" r="1" gradientUnits="userSpaceOnUse" gradientTransform="translate(1131.97 567.398) rotate(90) scale(4.5 17)">
<stop offset="0.421875" stop-color="white"/>
<stop offset="1" stop-color="white" stop-opacity="0"/>
</radialGradient>
<radialGradient id="paint4_radial_1373_232427" cx="0" cy="0" r="1" gradientUnits="userSpaceOnUse" gradientTransform="translate(1189.18 443.778) rotate(90) scale(4.5 17)">
<stop offset="0.421875" stop-color="white"/>
<stop offset="1" stop-color="white" stop-opacity="0"/>
</radialGradient>
<radialGradient id="paint5_radial_1373_232427" cx="0" cy="0" r="1" gradientUnits="userSpaceOnUse" gradientTransform="translate(867.176 348.778) rotate(90) scale(4.5 17)">
<stop offset="0.421875" stop-color="white"/>
<stop offset="1" stop-color="white" stop-opacity="0"/>
</radialGradient>
<radialGradient id="paint6_radial_1373_232427" cx="0" cy="0" r="1" gradientUnits="userSpaceOnUse" gradientTransform="translate(932.972 591.398) rotate(90) scale(4.5 17)">
<stop offset="0.421875" stop-color="white"/>
<stop offset="1" stop-color="white" stop-opacity="0"/>
</radialGradient>
<radialGradient id="paint7_radial_1373_232427" cx="0" cy="0" r="1" gradientUnits="userSpaceOnUse" gradientTransform="translate(1024 487) scale(419 419)">
<stop stop-color="#E32212"/>
<stop offset="1" stop-color="#E32212" stop-opacity="0"/>
</radialGradient>
<radialGradient id="paint8_radial_1373_232427" cx="0" cy="0" r="1" gradientUnits="userSpaceOnUse" gradientTransform="translate(991 522) scale(466 276.148)">
<stop stop-color="#E32212"/>
<stop offset="1" stop-color="#E32212" stop-opacity="0"/>
</radialGradient>
<radialGradient id="paint9_radial_1373_232427" cx="0" cy="0" r="1" gradientUnits="userSpaceOnUse" gradientTransform="translate(1170.9 533.578) rotate(90) scale(4.5 17)">
<stop offset="0.421875" stop-color="#E32212"/>
<stop offset="1" stop-color="#E32212" stop-opacity="0"/>
</radialGradient>
<radialGradient id="paint10_radial_1373_232427" cx="0" cy="0" r="1" gradientUnits="userSpaceOnUse" gradientTransform="translate(949.973 622.398) rotate(90) scale(4.5 17)">
<stop offset="0.421875" stop-color="#E32212"/>
<stop offset="1" stop-color="#E32212" stop-opacity="0"/>
</radialGradient>
<radialGradient id="paint11_radial_1373_232427" cx="0" cy="0" r="1" gradientUnits="userSpaceOnUse" gradientTransform="translate(1250.9 475.589) rotate(90) scale(4.5 17)">
<stop offset="0.421875" stop-color="#E32212"/>
<stop offset="1" stop-color="#E32212" stop-opacity="0"/>
</radialGradient>
<radialGradient id="paint12_radial_1373_232427" cx="0" cy="0" r="1" gradientUnits="userSpaceOnUse" gradientTransform="translate(871.974 457.397) rotate(90) scale(4.5 17)">
<stop offset="0.421875" stop-color="#E32212"/>
<stop offset="1" stop-color="#E32212" stop-opacity="0"/>
</radialGradient>
<radialGradient id="paint13_radial_1373_232427" cx="0" cy="0" r="1" gradientUnits="userSpaceOnUse" gradientTransform="translate(1018.5 498.5) rotate(90) scale(116.5)">
<stop stop-color="#E32212" stop-opacity="0.4"/>
<stop offset="1" stop-color="#E32212" stop-opacity="0"/>
</radialGradient>
<clipPath id="clip0_1373_232427">
<rect width="1600" height="1000" fill="white"/>
</clipPath>
</defs>
</svg>
