<svg width="24" height="24" viewBox="0 0 24 24" fill="none" xmlns="http://www.w3.org/2000/svg">
<path fill-rule="evenodd" clip-rule="evenodd" d="M3.25 2C3.25 1.58579 3.58579 1.25 4 1.25H18C18.4142 1.25 18.75 1.58579 18.75 2V5H17.25V2.75H4.75V21.25H17.25V18H18.75V22C18.75 22.4142 18.4142 22.75 18 22.75H4C3.58579 22.75 3.25 22.4142 3.25 22V2Z" fill="#474747"/>
<path fill-rule="evenodd" clip-rule="evenodd" d="M1.25 5.25H6.75V6.75H1.25V5.25Z" fill="#474747"/>
<path fill-rule="evenodd" clip-rule="evenodd" d="M1.25 11.25H6.75V12.75H1.25V11.25Z" fill="#474747"/>
<path fill-rule="evenodd" clip-rule="evenodd" d="M1.25 17.25H6.75V18.75H1.25V17.25Z" fill="#474747"/>
<path fill-rule="evenodd" clip-rule="evenodd" d="M11.9978 7.56118C11.7876 7.76826 11.75 7.91609 11.75 8C11.75 8.08391 11.7876 8.23174 11.9978 8.43882C12.2107 8.6485 12.5572 8.87186 13.0458 9.07546C14.0198 9.4813 15.4174 9.75 17 9.75C18.5826 9.75 19.9802 9.4813 20.9542 9.07546C21.4428 8.87186 21.7893 8.6485 22.0022 8.43882C22.2124 8.23174 22.25 8.08391 22.25 8C22.25 7.91609 22.2124 7.76826 22.0022 7.56118C21.7893 7.3515 21.4428 7.12814 20.9542 6.92454C19.9802 6.5187 18.5826 6.25 17 6.25C15.4174 6.25 14.0198 6.5187 13.0458 6.92454C12.5572 7.12814 12.2107 7.3515 11.9978 7.56118ZM12.4689 5.53993C13.6665 5.04094 15.2689 4.75 17 4.75C18.7311 4.75 20.3335 5.04094 21.5311 5.53993C22.1282 5.78873 22.6604 6.10408 23.0548 6.49259C23.4519 6.88371 23.75 7.39356 23.75 8C23.75 8.60644 23.4519 9.11629 23.0548 9.50741C22.6604 9.89592 22.1282 10.2113 21.5311 10.4601C20.3335 10.9591 18.7311 11.25 17 11.25C15.2689 11.25 13.6665 10.9591 12.4689 10.4601C11.8718 10.2113 11.3396 9.89592 10.9452 9.50741C10.5481 9.11629 10.25 8.60644 10.25 8C10.25 7.39356 10.5481 6.88371 10.9452 6.49259C11.3396 6.10408 11.8718 5.78873 12.4689 5.53993Z" fill="#474747"/>
<path fill-rule="evenodd" clip-rule="evenodd" d="M13.0458 13.0755C14.0198 13.4813 15.4174 13.75 17 13.75C18.5826 13.75 19.9802 13.4813 20.9542 13.0755C21.4428 12.8719 21.7893 12.6485 22.0022 12.4388C22.2124 12.2317 22.25 12.0839 22.25 12H23.75C23.75 12.6064 23.4519 13.1163 23.0548 13.5074C22.6604 13.8959 22.1282 14.2113 21.5311 14.4601C20.3335 14.9591 18.7311 15.25 17 15.25C15.2689 15.25 13.6665 14.9591 12.4689 14.4601C11.8718 14.2113 11.3396 13.8959 10.9452 13.5074C10.5481 13.1163 10.25 12.6064 10.25 12H11.75C11.75 12.0839 11.7876 12.2317 11.9978 12.4388C12.2107 12.6485 12.5572 12.8719 13.0458 13.0755Z" fill="#474747"/>
<path fill-rule="evenodd" clip-rule="evenodd" d="M13.0458 17.0755C14.0198 17.4813 15.4174 17.75 17 17.75C18.5826 17.75 19.9802 17.4813 20.9542 17.0755C21.4428 16.8719 21.7893 16.6485 22.0022 16.4388C22.2124 16.2317 22.25 16.0839 22.25 16H23.75C23.75 16.6064 23.4519 17.1163 23.0548 17.5074C22.6604 17.8959 22.1282 18.2113 21.5311 18.4601C20.3335 18.9591 18.7311 19.25 17 19.25C15.2689 19.25 13.6665 18.9591 12.4689 18.4601C11.8718 18.2113 11.3396 17.8959 10.9452 17.5074C10.5481 17.1163 10.25 16.6064 10.25 16H11.75C11.75 16.0839 11.7876 16.2317 11.9978 16.4388C12.2107 16.6485 12.5572 16.8719 13.0458 17.0755Z" fill="#474747"/>
<path fill-rule="evenodd" clip-rule="evenodd" d="M11 7.25C11.4142 7.25 11.75 7.58579 11.75 8V16C11.75 16.4142 11.4142 16.75 11 16.75C10.5858 16.75 10.25 16.4142 10.25 16V8C10.25 7.58579 10.5858 7.25 11 7.25ZM23 7.25C23.4142 7.25 23.75 7.58579 23.75 8V16C23.75 16.4142 23.4142 16.75 23 16.75C22.5858 16.75 22.25 16.4142 22.25 16V8C22.25 7.58579 22.5858 7.25 23 7.25Z" fill="#474747"/>
</svg>
