<svg width="24" height="24" viewBox="0 0 24 24" fill="none" xmlns="http://www.w3.org/2000/svg">
<path fill-rule="evenodd" clip-rule="evenodd" d="M4.25 1.75H19.75V20.25H5.775C5.89082 20.8206 6.39526 21.25 7 21.25H18.75V22.75H7C5.48122 22.75 4.25 21.5188 4.25 20V1.75ZM5.75 18.75H18.25V3.25H5.75V18.75Z" fill="#474747"/>
<path fill-rule="evenodd" clip-rule="evenodd" d="M10.5607 9.5L8.56065 11.5L10.5607 13.5L9.49999 14.5607L6.43933 11.5L9.49999 8.43934L10.5607 9.5Z" fill="#474747"/>
<path fill-rule="evenodd" clip-rule="evenodd" d="M13.4393 9.5L15.4393 11.5L13.4393 13.5L14.5 14.5607L17.5607 11.5L14.5 8.43934L13.4393 9.5Z" fill="#474747"/>
<path fill-rule="evenodd" clip-rule="evenodd" d="M13.9095 6.9543L11.5457 16.4095L10.0905 16.0457L12.4543 6.59049L13.9095 6.9543Z" fill="#474747"/>
</svg>
