<svg width="24" height="24" viewBox="0 0 24 24" fill="none" xmlns="http://www.w3.org/2000/svg">
<rect x="5.75" y="7.75" width="16.5" height="12.5" stroke="#474747" stroke-width="1.5"/>
<path d="M2 4V3.25H1.25V4H2ZM17.5 4L17.9605 3.40799L17.7573 3.25H17.5V4ZM2 17H1.25V17.3107L1.46967 17.5303L2 17ZM21.5395 8.09201C21.8665 8.34632 22.3377 8.28742 22.592 7.96046C22.8463 7.6335 22.7874 7.16229 22.4605 6.90799L21.5395 8.09201ZM2 4.75H17.5V3.25H2V4.75ZM2.75 17V4H1.25V17H2.75ZM17.0395 4.59201L21.5395 8.09201L22.4605 6.90799L17.9605 3.40799L17.0395 4.59201ZM1.46967 17.5303L4.96967 21.0303L6.03033 19.9697L2.53033 16.4697L1.46967 17.5303Z" fill="#474747"/>
<path d="M2 4L6 8" stroke="#474747" stroke-width="1.5"/>
<path fill-rule="evenodd" clip-rule="evenodd" d="M15 11H13V13H11V15H13V17H15V15H17V13H15V11Z" fill="#474747"/>
</svg>
