<svg width="24" height="12" viewBox="0 0 24 12" fill="none" xmlns="http://www.w3.org/2000/svg">
<path d="M1.33333 11.6671H22.6667C23.403 11.6671 24 11.2511 24 10.7378C24 10.2246 23.403 9.80855 22.6667 9.80855H1.33333C0.596954 9.80855 0 10.2246 0 10.7378C0 11.2511 0.596954 11.6671 1.33333 11.6671ZM1.33333 7.02068H22.6667C23.403 7.02068 24 6.60462 24 6.09138C24 5.57815 23.403 5.16209 22.6667 5.16209H1.33333C0.596954 5.16209 0 5.57815 0 6.09138C0 6.60462 0.596954 7.02068 1.33333 7.02068ZM0 1.44492C0 1.95815 0.596954 2.37421 1.33333 2.37421H22.6667C23.403 2.37421 24 1.95815 24 1.44492C24 0.931684 23.403 0.515625 22.6667 0.515625H1.33333C0.596954 0.515625 0 0.931684 0 1.44492Z" fill="white"/>
</svg>
