<svg width="24" height="24" viewBox="0 0 24 24" fill="none" xmlns="http://www.w3.org/2000/svg">
<rect x="0.75" y="2.75" width="22.5" height="18.5" stroke="#474747" stroke-width="1.5"/>
<path d="M1 8L24 8" stroke="#474747" stroke-width="1.5"/>
<path d="M4.5 5.5C4.5 5.91421 4.16421 6.25 3.75 6.25C3.33579 6.25 3 5.91421 3 5.5C3 5.08579 3.33579 4.75 3.75 4.75C4.16421 4.75 4.5 5.08579 4.5 5.5Z" fill="#474747"/>
<path d="M7.5 5.5C7.5 5.91421 7.16421 6.25 6.75 6.25C6.33579 6.25 6 5.91421 6 5.5C6 5.08579 6.33579 4.75 6.75 4.75C7.16421 4.75 7.5 5.08579 7.5 5.5Z" fill="#474747"/>
<path d="M10.5 5.5C10.5 5.91421 10.1642 6.25 9.75 6.25C9.33579 6.25 9 5.91421 9 5.5C9 5.08579 9.33579 4.75 9.75 4.75C10.1642 4.75 10.5 5.08579 10.5 5.5Z" fill="#474747"/>
<path d="M4 17L6.66667 14L11.1111 18L18.2222 11L20 13" stroke="#474747" stroke-width="1.5" stroke-linejoin="round"/>
</svg>
