<svg width="38" height="33" viewBox="0 0 38 33" fill="none" xmlns="http://www.w3.org/2000/svg">
<path d="M32.4634 0.00195312C34.3736 0.00195312 35.9221 1.57826 35.9228 3.52358C35.9221 3.52358 35.9221 29.3427 35.9221 29.3427C35.9221 31.2875 34.3736 32.8644 32.4634 32.8644H3.45925C1.54889 32.8644 0 31.2875 0 29.3427V3.52358C0 1.57826 1.54889 0.00195312 3.45925 0.00195312H32.4634Z" fill="#040404"/>
<path d="M28.3573 19.7562C26.9819 19.7562 25.7956 20.5803 25.2649 21.7607H20.9574L19.2643 16.4121L20.9801 11.0941H25.2587C25.7854 12.2824 26.9761 13.1142 28.3573 13.1142C30.2262 13.1142 31.7464 11.5939 31.7464 9.72501C31.7464 7.8561 30.2262 6.33594 28.3573 6.33594C27.0412 6.33594 25.899 7.09059 25.3377 8.18936H19.9381C19.6342 8.18933 19.3379 8.28459 19.091 8.46173C18.8441 8.63887 18.6589 8.88898 18.5616 9.17685L16.6035 14.975H11.805C11.2867 13.766 10.0856 12.9174 8.68887 12.9174C6.8204 12.9174 5.2998 14.4376 5.2998 16.3065C5.2998 18.175 6.8204 19.6951 8.68887 19.6951C9.99009 19.6951 11.1213 18.9578 11.689 17.8798H16.5807L18.5393 23.6779C18.6365 23.9658 18.8215 24.216 19.0684 24.3932C19.3152 24.5703 19.6115 24.6656 19.9153 24.6654H25.3303C25.8883 25.7727 27.0354 26.5339 28.3573 26.5339C30.2262 26.5339 31.7464 25.0137 31.7464 23.1448C31.7464 21.2764 30.2262 19.7562 28.3573 19.7562ZM28.3573 8.1513C29.225 8.1513 29.931 8.85734 29.931 9.72501C29.931 10.5927 29.225 11.2987 28.3573 11.2987C27.4897 11.2987 26.7842 10.5925 26.7842 9.72501C26.7842 8.85734 27.4897 8.1513 28.3573 8.1513ZM8.68887 17.8798C7.8212 17.8798 7.11575 17.1737 7.11575 16.3066C7.11575 15.4388 7.8212 14.7329 8.68887 14.7329C9.55654 14.7329 10.2626 15.4388 10.2626 16.3066C10.2626 17.1737 9.55654 17.8798 8.68887 17.8798ZM28.3573 24.7184C27.4897 24.7184 26.7842 24.0124 26.7842 23.1447C26.7842 22.277 27.4897 21.5716 28.3573 21.5716C29.225 21.5716 29.931 22.277 29.931 23.1447C29.931 24.0124 29.225 24.7184 28.3573 24.7184Z" fill="white"/>
</svg>
