<svg width="24" height="33" viewBox="0 0 24 33" fill="none" xmlns="http://www.w3.org/2000/svg">
<path d="M19.2892 14.0723C20.6449 14.3249 21.6099 14.8988 22.1728 15.7941C22.7358 16.6894 23.0115 18.0897 23.0115 20.0066C23.0115 23.8174 21.8626 26.928 19.5764 29.3614C17.2902 31.7833 14.3492 33 10.7877 33C9.38612 33 8.01898 32.7475 6.6978 32.2424C5.37663 31.7374 4.23926 31.0257 3.28572 30.119C2.19431 29.1203 1.37862 28.0643 0.838662 26.9624C0.275724 25.849 0 24.7127 0 23.5534C0 22.2563 0.275724 21.2463 0.838662 20.5346C1.4016 19.823 2.28621 19.3409 3.49251 19.0883C3.26274 18.5603 3.1019 18.1127 2.9985 17.7454C2.89511 17.3781 2.83766 17.1026 2.83766 16.9075C2.83766 16.2303 3.19381 15.5301 3.91758 14.8184C4.64136 14.1068 5.30769 13.751 5.95105 13.751C6.22678 13.751 6.51399 13.7969 6.81269 13.9002C7.11139 14.0035 7.46754 14.1642 7.85815 14.3823C6.68632 11.0995 5.83617 8.5513 5.30769 6.7607C4.77922 4.97009 4.51499 3.73043 4.51499 3.05322C4.51499 2.112 4.75625 1.37739 5.23876 0.814956C5.72128 0.275478 6.38762 0 7.21479 0C8.63936 0 10.4316 3.168 12.6144 9.51548C12.9935 10.6059 13.2807 11.4438 13.476 12.0292C13.6369 11.5586 13.8781 10.8929 14.1768 10.032C16.3596 3.74191 18.2323 0.59687 19.8062 0.59687C20.5759 0.59687 21.1963 0.86087 21.6559 1.37739C22.1154 1.89391 22.3452 2.59409 22.3452 3.47791C22.3452 4.14365 22.0924 5.36035 21.5869 7.128C21.0814 8.90713 20.3117 11.2257 19.2892 14.0723ZM3.04446 23.3238C3.25125 23.5763 3.54995 23.9551 3.92907 24.4602C4.92857 25.8376 5.84765 26.5263 6.6978 26.5263C6.98502 26.5263 7.23777 26.4344 7.46754 26.2508C7.69731 26.0671 7.81219 25.8835 7.81219 25.6883C7.81219 25.4588 7.66284 25.08 7.36414 24.552C7.06544 24.024 6.64036 23.4271 6.11189 22.7614C5.503 21.9923 5.00899 21.4299 4.60689 21.0741C4.2048 20.7183 3.88312 20.5461 3.64186 20.5461C3.11339 20.5461 2.61938 20.833 2.18282 21.3955C1.73477 21.9579 1.51648 22.6351 1.51648 23.4042C1.51648 24.024 1.66584 24.7127 1.97602 25.4817C2.28621 26.2393 2.73427 27.0083 3.33167 27.7774C4.22777 28.9711 5.33067 29.8894 6.65185 30.5322C7.97303 31.175 9.44356 31.4963 11.0405 31.4963C13.993 31.4963 16.463 30.3944 18.4506 28.2021C20.4381 25.9983 21.4376 23.255 21.4376 19.9377C21.4376 18.9277 21.3572 18.1242 21.2078 17.5273C21.0585 16.9304 20.8057 16.4943 20.461 16.2188C19.8407 15.7023 18.6344 15.2431 16.8422 14.8414C15.05 14.4282 13.1773 14.233 11.2243 14.233C10.6843 14.233 10.2937 14.3249 10.0639 14.5085C9.83417 14.6922 9.71929 15.0021 9.71929 15.4383C9.71929 16.4713 10.2937 17.2059 11.4426 17.6765C12.5914 18.1357 14.4526 18.3652 17.026 18.3652H17.9566C18.1633 18.3652 18.3357 18.4456 18.462 18.6063C18.5884 18.767 18.6803 19.008 18.7263 19.3179C18.4735 19.559 17.9451 19.8344 17.1409 20.1443C16.3367 20.4543 15.7278 20.7642 15.3027 21.0626C14.3951 21.7283 13.6598 22.5203 13.1084 23.4271C12.5569 24.3454 12.2812 25.2063 12.2812 26.0212C12.2812 26.5148 12.3961 27.1231 12.6374 27.8233C12.8671 28.5235 12.9935 28.9597 12.9935 29.1318V29.2925L12.9476 29.4991C12.2812 29.4532 11.7528 29.063 11.3736 28.3283C10.983 27.5937 10.7992 26.6181 10.7992 25.3899V25.1833C10.6728 25.2866 10.5579 25.367 10.4431 25.4129C10.3282 25.4588 10.2018 25.4817 10.0639 25.4817C9.92608 25.4817 9.7997 25.4703 9.67333 25.4473C9.54696 25.4243 9.42058 25.3899 9.25974 25.344C9.3057 25.5162 9.34016 25.6769 9.36314 25.8261C9.38612 25.9868 9.39761 26.113 9.39761 26.2049C9.39761 26.7673 9.17932 27.2494 8.74276 27.6397C8.3062 28.0414 7.77773 28.2365 7.18032 28.2365C6.22678 28.2365 5.26174 27.7774 4.27373 26.8477C3.28572 25.9179 2.8032 25.0111 2.8032 24.1158C2.8032 23.9551 2.82617 23.8059 2.86064 23.6682C2.88362 23.5304 2.95255 23.4157 3.04446 23.3238ZM9.84566 23.8633C10.0984 23.8633 10.3397 23.7485 10.5465 23.5075C10.7533 23.2779 10.8681 23.0254 10.8681 22.7499C10.8681 22.463 10.6613 21.7972 10.2478 20.7412C9.83417 19.6967 9.31719 18.6637 8.69681 17.6421C8.24875 16.8845 7.8007 16.3106 7.35265 15.9318C6.91609 15.5416 6.5025 15.3579 6.1004 15.3579C5.77872 15.3579 5.43407 15.553 5.04346 15.9548C4.65285 16.3565 4.46903 16.7238 4.46903 17.0797C4.46903 17.447 4.65285 17.9864 5.03197 18.7096C5.41109 19.4327 5.91659 20.2017 6.54845 21.0167C7.21479 21.912 7.84666 22.6007 8.43257 23.1057C9.02997 23.6223 9.501 23.8633 9.84566 23.8633ZM12.0744 12.9245L9.61589 5.84243C8.98402 4.05183 8.49001 2.86957 8.14536 2.31861C7.8007 1.76765 7.42158 1.49217 7.008 1.49217C6.68632 1.49217 6.43357 1.61843 6.23826 1.85948C6.04296 2.10052 5.93956 2.42191 5.93956 2.83513C5.93956 3.5353 6.2038 4.74052 6.73227 6.46226C7.26074 8.184 8.05345 10.4452 9.11039 13.2344C9.2023 13.0737 9.32868 12.9475 9.501 12.8786C9.66184 12.8097 9.89161 12.7753 10.1788 12.7753C10.2707 12.7753 10.4546 12.7868 10.7188 12.7983C11.006 12.8212 11.4541 12.8557 12.0744 12.9245ZM14.6364 19.7885C13.9815 19.7541 13.3726 19.6852 12.7867 19.5819C12.2008 19.4786 11.6494 19.3294 11.1209 19.1343C11.3621 19.6163 11.5804 20.0984 11.7642 20.5805C11.9481 21.0626 12.1089 21.5447 12.2238 22.0038C12.5914 21.5562 12.9705 21.143 13.3726 20.7642C13.7747 20.4083 14.1998 20.0755 14.6364 19.7885ZM17.6464 13.6936C18.6574 10.9388 19.4501 8.67757 20.013 6.88696C20.5759 5.09635 20.8631 3.99443 20.8631 3.5927C20.8631 3.15652 20.7712 2.81217 20.5759 2.57113C20.3921 2.33009 20.1279 2.20383 19.7947 2.20383C19.3696 2.20383 18.9446 2.55965 18.4965 3.25983C18.0599 3.96 17.5774 5.09635 17.049 6.64591L14.7857 13.2L17.6464 13.6936Z" fill="black"/>
</svg>
