<svg width="24" height="24" viewBox="0 0 24 24" fill="none" xmlns="http://www.w3.org/2000/svg">
<path fill-rule="evenodd" clip-rule="evenodd" d="M4.25 2.5C4.25 2.08579 4.58579 1.75 5 1.75H19C19.4142 1.75 19.75 2.08579 19.75 2.5V19.5C19.75 19.9142 19.4142 20.25 19 20.25H5.775C5.89082 20.8206 6.39526 21.25 7 21.25H18.75V22.75H7C5.48122 22.75 4.25 21.5188 4.25 20V2.5ZM5.75 18.75H18.25V3.25H5.75V18.75Z" fill="#474747"/>
<path fill-rule="evenodd" clip-rule="evenodd" d="M11 7.25C10.0335 7.25 9.25 8.0335 9.25 9C9.25 9.9665 10.0335 10.75 11 10.75C11.9665 10.75 12.75 9.9665 12.75 9C12.75 8.0335 11.9665 7.25 11 7.25ZM7.75 9C7.75 7.20507 9.20507 5.75 11 5.75C12.7949 5.75 14.25 7.20507 14.25 9C14.25 10.7949 12.7949 12.25 11 12.25C9.20507 12.25 7.75 10.7949 7.75 9Z" fill="#474747"/>
<path fill-rule="evenodd" clip-rule="evenodd" d="M12.5813 9.94247L16.5575 14.5814L15.4186 15.5575L11.4424 10.9187L12.5813 9.94247Z" fill="#474747"/>
</svg>
