<svg width="34" height="33" viewBox="0 0 34 33" fill="none" xmlns="http://www.w3.org/2000/svg">
<path d="M17 0C7.6075 0 0 7.57554 0 16.9187C0 24.3952 4.8705 30.7355 11.6237 32.9708C12.4737 33.1301 12.7854 32.6064 12.7854 32.1573C12.7854 31.7556 12.7712 30.691 12.7642 29.2806C8.03533 30.3007 7.038 27.0108 7.038 27.0108C6.2645 25.0581 5.14675 24.5359 5.14675 24.5359C3.60683 23.487 5.26575 23.5086 5.26575 23.5086C6.97283 23.6262 7.86958 25.2518 7.86958 25.2518C9.38542 27.8387 11.849 27.0912 12.8208 26.6593C12.9738 25.5646 13.4116 24.8199 13.8975 24.3967C10.1221 23.9734 6.154 22.5186 6.154 16.0363C6.154 14.1898 6.81275 12.6804 7.90358 11.4967C7.71233 11.0692 7.13858 9.3489 8.05233 7.01885C8.05233 7.01885 9.47608 6.56547 12.7273 8.75348C14.0873 8.37757 15.5323 8.19105 16.9773 8.18244C18.4223 8.19105 19.8673 8.37757 21.2273 8.75348C24.4573 6.56547 25.8811 7.01885 25.8811 7.01885C26.7948 9.3489 26.2211 11.0692 26.0511 11.4967C27.1348 12.6804 27.7936 14.1898 27.7936 16.0363C27.7936 22.5358 23.8198 23.9662 20.0373 24.3823C20.6323 24.8902 21.1848 25.9276 21.1848 27.513C21.1848 29.777 21.1636 31.5963 21.1636 32.1458C21.1636 32.5892 21.4611 33.1186 22.3323 32.9493C29.1337 30.7283 34 24.3838 34 16.9187C34 7.57554 26.3882 0 17 0Z" fill="#040404"/>
</svg>
