<svg width="32" height="33" viewBox="0 0 32 33" fill="none" xmlns="http://www.w3.org/2000/svg">
<path d="M29.6334 0.0966797H2.35872C1.06143 0.0966797 0 1.1443 0 2.43984V30.2939C0 31.5894 1.06143 32.645 2.35872 32.645H29.6334C30.9386 32.645 32 31.5894 32 30.2939V2.43984C32 1.1443 30.9386 0.0966797 29.6334 0.0966797Z" fill="#040404"/>
<path d="M4.74068 12.3004H9.48957V27.8309H4.74068V12.3004ZM7.11512 4.5752C8.63257 4.5752 9.86697 5.83075 9.86697 7.37419C9.86697 8.91764 8.63257 10.1732 7.11512 10.1732C5.58982 10.1732 4.36328 8.91764 4.36328 7.37419C4.36328 5.83075 5.58982 4.5752 7.11512 4.5752Z" fill="white"/>
<path d="M12.4698 12.3009H17.0221V14.4281H17.085C17.714 13.2045 19.2629 11.917 21.5744 11.917C26.3784 11.917 27.2668 15.1318 27.2668 19.3144V27.8313H22.5179V20.274C22.5179 18.4747 22.4865 16.1555 20.0491 16.1555C17.5803 16.1555 17.2029 18.1148 17.2029 20.1461V27.8313H12.4619V12.3009H12.4698Z" fill="white"/>
</svg>
