<svg width="24" height="24" viewBox="0 0 24 24" fill="none" xmlns="http://www.w3.org/2000/svg">
<g clip-path="url(#clip0_609_669)">
<path fill-rule="evenodd" clip-rule="evenodd" d="M17.3722 -0.305115L23.8106 6.13332L21.1384 8.80555H23.0111V12C23.0111 13.4942 21.7998 14.7055 20.3055 14.7055H20.0653C19.934 16.0773 18.7784 17.15 17.3722 17.15H17.132C17.0006 18.5217 15.845 19.5944 14.4389 19.5944H10.8384L6.12777 24.3051L-0.310669 17.8667L2.93332 14.6227V10.2227L7.33332 5.82266V5.64443C7.33332 4.4202 8.32576 3.42777 9.54999 3.42777H13.6393L17.3722 -0.305115ZM7.33332 7.94398L4.43332 10.844V15.244L1.81065 17.8667L6.12777 22.1838L10.2171 18.0944H14.4389C15.1047 18.0944 15.6444 17.5547 15.6444 16.8889V15.65H17.3722C18.038 15.65 18.5778 15.1102 18.5778 14.4444V13.2055H20.3055C20.9714 13.2055 21.5111 12.6658 21.5111 12V10.3055H12.7444V11.0222C12.7444 12.5164 11.5331 13.7278 10.0389 13.7278C8.54464 13.7278 7.33332 12.5165 7.33332 11.0222V7.94398ZM19.0171 8.80555L21.6893 6.13332L17.3722 1.81621L14.2607 4.92777H9.54999C9.15419 4.92777 8.83333 5.24863 8.83333 5.64443V11.0222C8.83333 11.688 9.37307 12.2278 10.0389 12.2278C10.7047 12.2278 11.2444 11.688 11.2444 11.0222V8.80555H19.0171Z" fill="#474747"/>
</g>
<defs>
<clipPath id="clip0_609_669">
<rect width="24" height="24" fill="white"/>
</clipPath>
</defs>
</svg>
