<svg width="37" height="33" viewBox="0 0 37 33" fill="none" xmlns="http://www.w3.org/2000/svg">
<path fill-rule="evenodd" clip-rule="evenodd" d="M37 3.90661C35.6405 4.56923 34.1767 5.01733 32.6413 5.21755C34.2093 4.18787 35.4125 2.55515 35.9793 0.610184C34.5112 1.5636 32.8889 2.2572 31.1558 2.62904C29.7746 1.01062 27.8005 0 25.6157 0C21.4264 0 18.0276 3.73023 18.0276 8.33044C18.0276 8.98353 18.0928 9.61755 18.2231 10.2277C11.9142 9.87974 6.32195 6.56663 2.57569 1.52069C1.92199 2.75536 1.54845 4.18787 1.54845 5.71333C1.54845 8.60217 2.88842 11.1525 4.92552 12.647C3.68328 12.6065 2.51054 12.2275 1.48547 11.6078V11.7103C1.48547 15.748 4.10242 19.1159 7.57721 19.8787C6.94089 20.0741 6.26982 20.1718 5.57704 20.1718C5.0884 20.1718 4.61061 20.1218 4.14803 20.0241C5.11446 23.3324 7.91601 25.7421 11.2388 25.8065C8.64137 28.0423 5.36638 29.3746 1.81123 29.3746C1.1988 29.3746 0.592886 29.3365 0 29.2602C3.35969 31.6199 7.35135 33 11.6362 33C25.6005 33 33.2342 20.3077 33.2342 9.29816C33.2342 8.93586 33.2277 8.57356 33.2146 8.21842C34.6979 7.04334 35.9858 5.57746 37 3.90661Z" fill="#040404"/>
</svg>
