<svg width="97" height="79" viewBox="0 0 97 79" fill="none" xmlns="http://www.w3.org/2000/svg">
<path d="M40.9499 39.2473V78.9914H0.629883V52.7834C0.629883 42.7994 2.35788 33.7753 5.81388 25.7113C9.26988 17.4554 15.1259 9.19936 23.3819 0.943359L38.0699 12.4633C33.4619 17.4554 29.9099 22.0634 27.4139 26.2874C24.9179 30.5114 23.2859 34.8313 22.5179 39.2473H40.9499ZM96.2459 39.2473V78.9914H55.9259V52.7834C55.9259 42.7994 57.6539 33.7753 61.1099 25.7113C64.5659 17.4554 70.4219 9.19936 78.6779 0.943359L93.3659 12.4633C88.7579 17.4554 85.2059 22.0634 82.7099 26.2874C80.2139 30.5114 78.5819 34.8313 77.8139 39.2473H96.2459Z" fill="#E32212"/>
</svg>
